# xmcd
#
# Track frame offsets: 
#        183
#        12325
#        25980
#        37660
#        60805
#        73543
#
# Disc length: 1154 seconds
#
# Revision: 2
# Processed by: cddbd v1.5.1PL0 Copyright (c) Steve Scherf et al.
# Submitted via: ExactAudioCopy v0.95a5
#
DISCID=3b048006
DTITLE=Various Artist - Nivea Visage Essential Soul
DYEAR=1900
DGENRE=
TTITLE0=Martha Reeves - Dancing In The Street
TTITLE1=Ben E King - Stand By Me
TTITLE2=Sam and Dave - Soul Man
TTITLE3=Chi-lites - Have You Seen Her?
TTITLE4=Fontella Bass - Rescue Me
TTITLE5=Percy Sledge - When A Man Loves A Woman
EXTD=The entry for this already up had no names for the various artist
EXTD=s of the songs, I have entered them.
EXTT0=
EXTT1=
EXTT2=
EXTT3=
EXTT4=
EXTT5=
PLAYORDER=
